PathFileType	4	(X/Y/Z)	C:\Users\italobelli\Desktop\GitHub\PTbot_officialCBL\Personal_Results\ABD22_noisy2.trc
DataRate	CameraRate	NumFrames	NumMarkers	Units	OrigDataRate	OrigDataStartFrame	OrigNumFrames
106.125000	106.125000	42	9	m	106.125000	213	850
Frame#	Time		gu		centelbow		EpL		centpxt8		centijc7		ij		ts		aa		ai
			X1	Y1	Z1	X2	Y2	Z2	X3	Y3	Z3	X4	Y4	Z4	X5	Y5	Z5	X6	Y6	Z6	X7	Y7	Z7	X8	Y8	Z8	X9	Y9	Z9

213	1.9976	-0.091779	0.036768	0.1424	-0.12888	-0.056466	0.37087	-0.14403	-0.028392	0.3755	-0.046816	-0.15316	-0.008669	-0.046816	0.031938	-0.008669	0	0	0	-0.12601	0.0072845	0.026648	-0.12872	0.058432	0.13436	-0.12581	-0.092896	0.080004
214	2.0071	-0.091715	0.037216	0.14221	-0.12862	-0.053308	0.37172	-0.14377	-0.025172	0.37611	-0.046816	-0.15316	-0.008669	-0.046816	0.031938	-0.008669	0	0	0	-0.12609	0.0070548	0.026721	-0.12872	0.058742	0.13417	-0.12578	-0.092907	0.080574
215	2.0165	-0.091652	0.037665	0.142	-0.12834	-0.050084	0.37249	-0.14349	-0.021892	0.37665	-0.046816	-0.15316	-0.008669	-0.046816	0.031938	-0.008669	0	0	0	-0.12618	0.0068256	0.026795	-0.12873	0.05905	0.13398	-0.12575	-0.092913	0.081144
216	2.0259	-0.09159	0.038115	0.14179	-0.12804	-0.046794	0.37321	-0.14318	-0.01855	0.37712	-0.046816	-0.15316	-0.008669	-0.046816	0.031938	-0.008669	0	0	0	-0.12626	0.0065966	0.02687	-0.12874	0.059356	0.1338	-0.12573	-0.092912	0.081713
217	2.0353	-0.09153	0.038565	0.14155	-0.12771	-0.043442	0.37387	-0.14284	-0.015151	0.37751	-0.046816	-0.15316	-0.008669	-0.046816	0.031938	-0.008669	0	0	0	-0.12635	0.0063679	0.026947	-0.12875	0.059659	0.13361	-0.12571	-0.092905	0.082281
218	2.0448	-0.091472	0.039016	0.14131	-0.12737	-0.040029	0.37447	-0.14249	-0.011697	0.37783	-0.046816	-0.15316	-0.008669	-0.046816	0.031938	-0.008669	0	0	0	-0.12644	0.0061395	0.027026	-0.12876	0.059962	0.13342	-0.12569	-0.092892	0.082849
219	2.0542	-0.091414	0.039466	0.14105	-0.127	-0.036559	0.37502	-0.14211	-0.0081912	0.37809	-0.046816	-0.15316	-0.008669	-0.046816	0.031938	-0.008669	0	0	0	-0.12653	0.0059114	0.027106	-0.12878	0.060262	0.13323	-0.12568	-0.092873	0.083416
220	2.0636	-0.091358	0.039917	0.14078	-0.12662	-0.033035	0.3755	-0.14172	-0.0046353	0.37827	-0.046816	-0.15316	-0.008669	-0.046816	0.031938	-0.008669	0	0	0	-0.12663	0.0056836	0.027187	-0.1288	0.06056	0.13304	-0.12567	-0.092848	0.083983
221	2.073	-0.091304	0.040367	0.1405	-0.12622	-0.02946	0.37593	-0.14131	-0.0010327	0.37839	-0.046816	-0.15316	-0.008669	-0.046816	0.031938	-0.008669	0	0	0	-0.12672	0.0054562	0.02727	-0.12882	0.060857	0.13285	-0.12567	-0.092817	0.084549
222	2.0824	-0.091252	0.040817	0.14021	-0.1258	-0.025836	0.37631	-0.14088	0.0026139	0.37844	-0.046816	-0.15316	-0.008669	-0.046816	0.031938	-0.008669	0	0	0	-0.12682	0.005229	0.027354	-0.12884	0.061153	0.13266	-0.12566	-0.092781	0.085115
223	2.0919	-0.091201	0.041266	0.1399	-0.12536	-0.022165	0.37663	-0.14043	0.0063017	0.37843	-0.046816	-0.15316	-0.008669	-0.046816	0.031938	-0.008669	0	0	0	-0.12692	0.0050021	0.02744	-0.12886	0.061446	0.13247	-0.12567	-0.092738	0.085681
224	2.1013	-0.091151	0.041714	0.13959	-0.12491	-0.018452	0.3769	-0.13996	0.010028	0.37835	-0.046816	-0.15316	-0.008669	-0.046816	0.031938	-0.008669	0	0	0	-0.12702	0.0047756	0.027527	-0.12888	0.061738	0.13228	-0.12567	-0.092691	0.086246
225	2.1107	-0.091104	0.042161	0.13926	-0.12445	-0.014698	0.37711	-0.13948	0.01379	0.37822	-0.046816	-0.15316	-0.008669	-0.046816	0.031938	-0.008669	0	0	0	-0.12712	0.0045493	0.027615	-0.12891	0.062029	0.13209	-0.12568	-0.092638	0.08681
226	2.1201	-0.091058	0.042607	0.13893	-0.12397	-0.010907	0.37728	-0.13899	0.017585	0.37802	-0.046816	-0.15316	-0.008669	-0.046816	0.031938	-0.008669	0	0	0	-0.12722	0.0043234	0.027705	-0.12894	0.062317	0.13189	-0.12569	-0.09258	0.087375
227	2.1296	-0.091014	0.043051	0.13859	-0.12347	-0.0070814	0.37739	-0.13848	0.02141	0.37777	-0.046816	-0.15316	-0.008669	-0.046816	0.031938	-0.008669	0	0	0	-0.12733	0.0040978	0.027796	-0.12897	0.062605	0.1317	-0.12571	-0.092516	0.087938
228	2.139	-0.090971	0.043494	0.13824	-0.12297	-0.0032237	0.37745	-0.13796	0.025262	0.37746	-0.046816	-0.15316	-0.008669	-0.046816	0.031938	-0.008669	0	0	0	-0.12743	0.0038725	0.027888	-0.129	0.062891	0.1315	-0.12573	-0.092448	0.088502
229	2.1484	-0.090931	0.043936	0.13787	-0.12246	0.00066309	0.37747	-0.13743	0.02914	0.3771	-0.046816	-0.15316	-0.008669	-0.046816	0.031938	-0.008669	0	0	0	-0.12754	0.0036476	0.027982	-0.12904	0.063176	0.13131	-0.12575	-0.092375	0.089065
230	2.1578	-0.090893	0.044375	0.13751	-0.12193	0.0045761	0.37743	-0.13689	0.033039	0.37668	-0.046816	-0.15316	-0.008669	-0.046816	0.031938	-0.008669	0	0	0	-0.12765	0.0034229	0.028077	-0.12907	0.063459	0.13111	-0.12578	-0.092296	0.089628
231	2.1673	-0.090856	0.044812	0.13713	-0.1214	0.0085126	0.37735	-0.13634	0.036957	0.37622	-0.046816	-0.15316	-0.008669	-0.046816	0.031938	-0.008669	0	0	0	-0.12776	0.0031986	0.028173	-0.12911	0.063741	0.13091	-0.12581	-0.092214	0.090191
232	2.1767	-0.090822	0.045247	0.13675	-0.12085	0.01247	0.37723	-0.13578	0.040891	0.3757	-0.046816	-0.15316	-0.008669	-0.046816	0.031938	-0.008669	0	0	0	-0.12787	0.0029747	0.028271	-0.12915	0.064021	0.13071	-0.12584	-0.092126	0.090753
233	2.1861	-0.090789	0.045679	0.13636	-0.1203	0.016445	0.37706	-0.13521	0.044839	0.37513	-0.046816	-0.15316	-0.008669	-0.046816	0.031938	-0.008669	0	0	0	-0.12798	0.002751	0.02837	-0.12919	0.064301	0.13051	-0.12588	-0.092034	0.091316
234	2.1955	-0.090759	0.046109	0.13596	-0.11974	0.020435	0.37684	-0.13464	0.048798	0.37452	-0.046816	-0.15316	-0.008669	-0.046816	0.031938	-0.008669	0	0	0	-0.12809	0.0025277	0.02847	-0.12924	0.064579	0.13031	-0.12591	-0.091938	0.091878
235	2.2049	-0.09073	0.046536	0.13556	-0.11918	0.024437	0.37658	-0.13406	0.052764	0.37386	-0.046816	-0.15316	-0.008669	-0.046816	0.031938	-0.008669	0	0	0	-0.1282	0.0023047	0.028571	-0.12928	0.064856	0.1301	-0.12596	-0.091837	0.092439
236	2.2144	-0.090704	0.046959	0.13516	-0.11861	0.028448	0.37628	-0.13347	0.056736	0.37315	-0.046816	-0.15316	-0.008669	-0.046816	0.031938	-0.008669	0	0	0	-0.12832	0.0020821	0.028673	-0.12933	0.065132	0.1299	-0.126	-0.091732	0.093001
237	2.2238	-0.09068	0.04738	0.13475	-0.11803	0.032466	0.37594	-0.13288	0.060711	0.37241	-0.046816	-0.15316	-0.008669	-0.046816	0.031938	-0.008669	0	0	0	-0.12843	0.0018598	0.028777	-0.12938	0.065407	0.12969	-0.12605	-0.091624	0.093562
238	2.2332	-0.090659	0.047797	0.13433	-0.11746	0.036488	0.37556	-0.13229	0.064685	0.37162	-0.046816	-0.15316	-0.008669	-0.046816	0.031938	-0.008669	0	0	0	-0.12855	0.0016378	0.028882	-0.12943	0.065681	0.12948	-0.1261	-0.091511	0.094124
239	2.2426	-0.090639	0.048211	0.13391	-0.11688	0.040511	0.37514	-0.1317	0.068656	0.37079	-0.046816	-0.15316	-0.008669	-0.046816	0.031938	-0.008669	0	0	0	-0.12866	0.0014162	0.028988	-0.12948	0.065953	0.12927	-0.12615	-0.091394	0.094685
240	2.2521	-0.090622	0.04862	0.13349	-0.1163	0.044532	0.37467	-0.1311	0.072622	0.36992	-0.046816	-0.15316	-0.008669	-0.046816	0.031938	-0.008669	0	0	0	-0.12878	0.0011949	0.029095	-0.12954	0.066225	0.12906	-0.12621	-0.091274	0.095246
241	2.2615	-0.090607	0.049026	0.13307	-0.11571	0.048548	0.37417	-0.1305	0.076579	0.36902	-0.046816	-0.15316	-0.008669	-0.046816	0.031938	-0.008669	0	0	0	-0.12889	0.00097397	0.029203	-0.12959	0.066496	0.12885	-0.12627	-0.09115	0.095807
242	2.2709	-0.090595	0.049428	0.13264	-0.11513	0.052557	0.37364	-0.12991	0.080524	0.36808	-0.046816	-0.15316	-0.008669	-0.046816	0.031938	-0.008669	0	0	0	-0.12901	0.00075339	0.029313	-0.12965	0.066766	0.12864	-0.12633	-0.091023	0.096368
243	2.2803	-0.090585	0.049825	0.13221	-0.11455	0.056555	0.37307	-0.12931	0.084455	0.36711	-0.046816	-0.15316	-0.008669	-0.046816	0.031938	-0.008669	0	0	0	-0.12912	0.00053317	0.029423	-0.12971	0.067035	0.12842	-0.1264	-0.090892	0.096929
244	2.2898	-0.090578	0.050218	0.13178	-0.11397	0.060541	0.37246	-0.12872	0.08837	0.36611	-0.046816	-0.15316	-0.008669	-0.046816	0.031938	-0.008669	0	0	0	-0.12924	0.0003133	0.029535	-0.12977	0.067303	0.1282	-0.12647	-0.090758	0.09749
245	2.2992	-0.090573	0.050606	0.13135	-0.11339	0.06451	0.37182	-0.12813	0.092265	0.36507	-0.046816	-0.15316	-0.008669	-0.046816	0.031938	-0.008669	0	0	0	-0.12936	9.3784e-05	0.029648	-0.12983	0.067571	0.12798	-0.12654	-0.09062	0.098051
246	2.3086	-0.09057	0.05099	0.13091	-0.11282	0.068461	0.37114	-0.12755	0.096137	0.36401	-0.046816	-0.15316	-0.008669	-0.046816	0.031938	-0.008669	0	0	0	-0.12948	-0.00012537	0.029761	-0.1299	0.067838	0.12776	-0.12661	-0.09048	0.098612
247	2.318	-0.090571	0.051368	0.13048	-0.11225	0.07239	0.37044	-0.12697	0.099984	0.36291	-0.046816	-0.15316	-0.008669	-0.046816	0.031938	-0.008669	0	0	0	-0.12959	-0.00034417	0.029876	-0.12996	0.068104	0.12754	-0.12669	-0.090337	0.099173
248	2.3274	-0.090574	0.051741	0.13005	-0.11168	0.076295	0.3697	-0.1264	0.1038	0.3618	-0.046816	-0.15316	-0.008669	-0.046816	0.031938	-0.008669	0	0	0	-0.12971	-0.0005626	0.029992	-0.13003	0.068369	0.12731	-0.12676	-0.09019	0.099734
249	2.3369	-0.090579	0.052109	0.12962	-0.11112	0.080172	0.36893	-0.12583	0.10759	0.36065	-0.046816	-0.15316	-0.008669	-0.046816	0.031938	-0.008669	0	0	0	-0.12983	-0.00078067	0.030109	-0.1301	0.068634	0.12709	-0.12685	-0.090041	0.10029
250	2.3463	-0.090587	0.052471	0.12918	-0.11057	0.08402	0.36813	-0.12527	0.11135	0.35949	-0.046816	-0.15316	-0.008669	-0.046816	0.031938	-0.008669	0	0	0	-0.12994	-0.00099837	0.030227	-0.13017	0.068898	0.12686	-0.12693	-0.08989	0.10086
251	2.3557	-0.090598	0.052827	0.12875	-0.11002	0.087835	0.3673	-0.12473	0.11507	0.3583	-0.046816	-0.15316	-0.008669	-0.046816	0.031938	-0.008669	0	0	0	-0.13006	-0.0012157	0.030346	-0.13025	0.069162	0.12663	-0.12702	-0.089736	0.10142
252	2.3651	-0.090612	0.053177	0.12833	-0.10949	0.091614	0.36645	-0.12419	0.11875	0.35709	-0.046816	-0.15316	-0.008669	-0.046816	0.031938	-0.008669	0	0	0	-0.13017	-0.0014327	0.030466	-0.13032	0.069425	0.1264	-0.1271	-0.089579	0.10198
253	2.3746	-0.090629	0.053521	0.1279	-0.10896	0.095355	0.36557	-0.12366	0.12238	0.35586	-0.046816	-0.15316	-0.008669	-0.046816	0.031938	-0.008669	0	0	0	-0.13029	-0.0016493	0.030587	-0.1304	0.069688	0.12616	-0.12719	-0.08942	0.10254
254	2.384	-0.090648	0.053859	0.12748	-0.10844	0.099055	0.36466	-0.12314	0.12598	0.35462	-0.046816	-0.15316	-0.008669	-0.046816	0.031938	-0.008669	0	0	0	-0.1304	-0.0018655	0.030709	-0.13047	0.06995	0.12592	-0.12729	-0.089259	0.1031
